<svg xmlns="http://www.w3.org/2000/svg" id="SvgjsSvg49699" width="4096" height="1037.4648188033225" version="1.1" xmlns:xlink="http://www.w3.org/1999/xlink" xmlns:svgjs="http://svgjs.com/svgjs"><defs id="SvgjsDefs49700"></defs><g id="SvgjsG49701" transform="translate(328, 328) scale(34.4)" opacity="1"><defs id="SvgjsDefs15500"></defs><g id="SvgjsG15501" transform="scale(0.21645021645021645)" opacity="1"><g id="SvgjsG15502" class="text" transform="translate(266.9565503963372, 50.17) scale(1)" light-content="false" fill="#cbbcab"><path d="M-171.89 1.06C-170 1.06 -168.23 0.96 -166.58 0.74C-164.93 0.53 -163.44 0.25 -162.12 -0.11C-160.8 -0.46 -159.66 -0.83 -158.69 -1.2C-157.72 -1.58 -156.96 -1.96 -156.39 -2.34L-158.8 -9.62C-159.88 -9.06 -161.42 -8.46 -163.4 -7.82C-165.38 -7.18 -167.95 -6.86 -171.11 -6.86C-173.75 -6.86 -176.02 -7.3 -177.9 -8.17C-179.79 -9.05 -181.35 -10.27 -182.57 -11.85C-183.8 -13.43 -184.71 -15.31 -185.3 -17.48C-185.89 -19.65 -186.18 -22.03 -186.18 -24.63C-186.18 -27.55 -185.81 -30.12 -185.05 -32.34C-184.3 -34.56 -183.25 -36.4 -181.9 -37.86C-180.56 -39.32 -178.97 -40.42 -177.13 -41.15C-175.29 -41.88 -173.3 -42.25 -171.18 -42.25C-168.73 -42.25 -166.45 -41.93 -164.35 -41.29C-162.25 -40.65 -160.64 -39.98 -159.51 -39.27L-156.89 -46.56C-157.22 -46.75 -157.78 -47.06 -158.59 -47.48C-159.39 -47.91 -160.4 -48.31 -161.63 -48.69C-162.85 -49.06 -164.29 -49.41 -165.94 -49.71C-167.6 -50.02 -169.44 -50.17 -171.46 -50.17C-174.81 -50.17 -177.95 -49.61 -180.88 -48.47C-183.8 -47.34 -186.35 -45.68 -188.52 -43.49C-190.69 -41.29 -192.4 -38.61 -193.65 -35.45C-194.9 -32.29 -195.52 -28.66 -195.52 -24.56C-195.52 -20.45 -194.98 -16.82 -193.9 -13.66C-192.81 -10.5 -191.26 -7.82 -189.23 -5.63C-187.2 -3.43 -184.72 -1.77 -181.8 -0.64C-178.87 0.5 -175.57 1.06 -171.89 1.06Z M-143.02 -6.02C-145.19 -6.02 -146.91 -6.4 -148.18 -7.18C-149.46 -7.96 -150.09 -9.36 -150.09 -11.39C-150.09 -12.43 -149.86 -13.29 -149.39 -13.98C-148.91 -14.66 -148.29 -15.19 -147.51 -15.57C-146.73 -15.95 -145.86 -16.21 -144.89 -16.35C-143.93 -16.49 -142.97 -16.56 -142.03 -16.56C-140.94 -16.56 -139.95 -16.49 -139.05 -16.35C-138.16 -16.21 -137.47 -16.06 -137 -15.92L-137 -6.44C-138.37 -6.16 -140.37 -6.02 -143.02 -6.02ZM-143.72 -37.93C-146.08 -37.93 -148.3 -37.74 -150.38 -37.36C-152.45 -36.99 -154.03 -36.61 -155.12 -36.23L-154.06 -29.3C-153.02 -29.67 -151.67 -30 -150.02 -30.29C-148.37 -30.57 -146.56 -30.71 -144.57 -30.71C-143.11 -30.71 -141.9 -30.52 -140.93 -30.15C-139.96 -29.77 -139.18 -29.24 -138.59 -28.55C-138 -27.87 -137.59 -27.08 -137.36 -26.18C-137.12 -25.29 -137 -24.34 -137 -23.35L-137 -21.94C-138.18 -22.22 -139.29 -22.42 -140.33 -22.54C-141.37 -22.66 -142.36 -22.72 -143.3 -22.72C-145.33 -22.72 -147.27 -22.52 -149.14 -22.11C-151 -21.71 -152.64 -21.05 -154.06 -20.13C-155.47 -19.21 -156.59 -18.02 -157.42 -16.56C-158.24 -15.1 -158.66 -13.3 -158.66 -11.18C-158.66 -8.96 -158.29 -7.1 -157.56 -5.59C-156.83 -4.08 -155.81 -2.85 -154.52 -1.91C-153.22 -0.97 -151.65 -0.28 -149.81 0.14C-147.97 0.57 -145.94 0.78 -143.72 0.78C-140.37 0.78 -137.37 0.58 -134.7 0.18C-132.04 -0.22 -130.04 -0.57 -128.72 -0.85L-128.72 -23.28C-128.72 -25.45 -128.97 -27.45 -129.47 -29.26C-129.96 -31.08 -130.79 -32.62 -131.94 -33.9C-133.1 -35.17 -134.64 -36.16 -136.58 -36.87C-138.51 -37.58 -140.89 -37.93 -143.72 -37.93Z M-116.06 -6.16C-118.32 -6.16 -120.34 -6.39 -122.11 -6.86C-123.87 -7.34 -125.4 -7.83 -126.67 -8.35L-128.16 -1.2C-127.35 -0.87 -125.96 -0.44 -123.98 0.11C-122 0.65 -119.38 0.92 -116.13 0.92C-111.27 0.92 -107.53 0.01 -104.91 -1.8C-102.29 -3.62 -100.98 -6.3 -100.98 -9.84C-100.98 -11.49 -101.19 -12.9 -101.62 -14.08C-102.04 -15.26 -102.72 -16.31 -103.64 -17.23C-104.56 -18.15 -105.72 -18.98 -107.14 -19.71C-108.55 -20.44 -110.28 -21.18 -112.3 -21.94C-113.53 -22.36 -114.57 -22.77 -115.42 -23.18C-116.27 -23.58 -116.95 -23.98 -117.47 -24.38C-117.99 -24.78 -118.36 -25.22 -118.57 -25.69C-118.78 -26.16 -118.89 -26.7 -118.89 -27.32C-118.89 -28.54 -118.34 -29.45 -117.26 -30.04C-116.17 -30.63 -114.76 -30.92 -113.01 -30.92C-111.08 -30.92 -109.38 -30.75 -107.92 -30.39C-106.45 -30.04 -105.25 -29.65 -104.31 -29.23L-102.75 -36.16C-103.74 -36.54 -105.23 -36.93 -107.21 -37.33C-109.19 -37.73 -111.27 -37.93 -113.44 -37.93C-117.73 -37.93 -121.13 -36.95 -123.63 -34.99C-126.13 -33.04 -127.38 -30.36 -127.38 -26.96C-127.38 -25.22 -127.11 -23.74 -126.56 -22.54C-126.02 -21.34 -125.28 -20.31 -124.33 -19.46C-123.39 -18.61 -122.27 -17.87 -120.97 -17.23C-119.68 -16.59 -118.25 -15.99 -116.69 -15.43C-114.14 -14.48 -112.32 -13.61 -111.21 -12.81C-110.1 -12.01 -109.54 -10.99 -109.54 -9.77C-109.54 -8.44 -110.06 -7.51 -111.1 -6.97C-112.14 -6.43 -113.79 -6.16 -116.06 -6.16Z M-66.59 -18.54C-66.59 -21.47 -67.03 -24.12 -67.9 -26.5C-68.77 -28.88 -69.99 -30.92 -71.54 -32.62C-73.1 -34.32 -74.98 -35.63 -77.17 -36.55C-79.36 -37.47 -81.76 -37.93 -84.35 -37.93C-86.95 -37.93 -89.33 -37.47 -91.5 -36.55C-93.67 -35.63 -95.55 -34.32 -97.13 -32.62C-98.71 -30.92 -99.93 -28.88 -100.81 -26.5C-101.68 -24.12 -102.11 -21.47 -102.11 -18.54C-102.11 -15.62 -101.68 -12.95 -100.81 -10.54C-99.93 -8.14 -98.72 -6.09 -97.16 -4.39C-95.6 -2.69 -93.74 -1.37 -91.57 -0.42C-89.4 0.52 -86.99 0.99 -84.35 0.99C-81.71 0.99 -79.29 0.52 -77.1 -0.42C-74.91 -1.37 -73.03 -2.69 -71.47 -4.39C-69.92 -6.09 -68.71 -8.14 -67.86 -10.54C-67.01 -12.95 -66.59 -15.62 -66.59 -18.54ZM-75.37 -18.54C-75.37 -14.81 -76.16 -11.86 -77.74 -9.69C-79.32 -7.52 -81.52 -6.44 -84.35 -6.44C-87.18 -6.44 -89.39 -7.52 -90.97 -9.69C-92.55 -11.87 -93.34 -14.81 -93.34 -18.54C-93.34 -22.22 -92.55 -25.13 -90.97 -27.28C-89.39 -29.43 -87.18 -30.5 -84.35 -30.5C-81.52 -30.5 -79.32 -29.43 -77.74 -27.28C-76.16 -25.13 -75.37 -22.22 -75.37 -18.54Z M-65.25 -46.78L-65.25 -14.72C-65.25 -12.27 -65.03 -10.08 -64.61 -8.17C-64.18 -6.26 -63.45 -4.64 -62.42 -3.29C-61.38 -1.95 -59.97 -0.92 -58.2 -0.21C-56.44 0.5 -54.23 0.85 -51.59 0.85C-49.42 0.85 -47.53 0.63 -45.93 0.18C-44.32 -0.27 -43.03 -0.71 -42.03 -1.13L-43.45 -7.93C-44.16 -7.64 -45.11 -7.34 -46.32 -7.01C-47.52 -6.68 -48.9 -6.51 -50.46 -6.51C-52.72 -6.51 -54.32 -7.15 -55.27 -8.42C-56.21 -9.69 -56.68 -11.82 -56.68 -14.79L-56.68 -29.86L-43.52 -29.86L-43.52 -37.01L-56.68 -37.01L-56.68 -48.19Z M-45.01 -18.33C-45.01 -15.54 -44.63 -12.99 -43.87 -10.65C-43.12 -8.31 -41.96 -6.29 -40.41 -4.56C-38.85 -2.84 -36.87 -1.5 -34.46 -0.53C-32.06 0.44 -29.23 0.92 -25.97 0.92C-24.7 0.92 -23.45 0.85 -22.22 0.71C-20.99 0.57 -19.85 0.39 -18.79 0.18C-17.73 -0.04 -16.78 -0.27 -15.96 -0.53C-15.13 -0.79 -14.48 -1.04 -14.01 -1.27L-15.14 -8.28C-16.13 -7.85 -17.49 -7.45 -19.21 -7.08C-20.93 -6.7 -22.83 -6.51 -24.91 -6.51C-28.45 -6.51 -31.15 -7.32 -33.01 -8.95C-34.88 -10.58 -35.93 -12.88 -36.16 -15.85L-11.75 -15.85C-11.7 -16.32 -11.66 -16.85 -11.64 -17.44C-11.62 -18.03 -11.61 -18.56 -11.61 -19.04C-11.61 -25.31 -13.03 -30.03 -15.89 -33.19C-18.74 -36.35 -22.72 -37.93 -27.81 -37.93C-29.98 -37.93 -32.1 -37.52 -34.18 -36.69C-36.26 -35.87 -38.1 -34.64 -39.7 -33.01C-41.3 -31.38 -42.59 -29.34 -43.56 -26.89C-44.52 -24.44 -45.01 -21.58 -45.01 -18.33ZM-20.17 -22.15L-36.09 -22.15C-35.95 -23.23 -35.69 -24.3 -35.31 -25.33C-34.93 -26.37 -34.4 -27.29 -33.72 -28.09C-33.04 -28.9 -32.2 -29.54 -31.21 -30.04C-30.22 -30.54 -29.06 -30.78 -27.74 -30.78C-26.47 -30.78 -25.37 -30.56 -24.45 -30.11C-23.53 -29.66 -22.75 -29.05 -22.11 -28.27C-21.48 -27.49 -20.99 -26.57 -20.66 -25.51C-20.33 -24.45 -20.17 -23.33 -20.17 -22.15Z M-11.68 -18.47C-11.68 -15.69 -11.3 -13.1 -10.54 -10.72C-9.79 -8.34 -8.65 -6.29 -7.11 -4.56C-5.58 -2.84 -3.64 -1.5 -1.31 -0.53C1.03 0.44 3.77 0.92 6.94 0.92C8.96 0.92 10.93 0.73 12.84 0.35C14.75 -0.02 16.18 -0.45 17.13 -0.92L15.92 -8C14.88 -7.57 13.66 -7.22 12.24 -6.94C10.83 -6.65 9.39 -6.51 7.93 -6.51C4.01 -6.51 1.23 -7.58 -0.42 -9.73C-2.08 -11.88 -2.9 -14.79 -2.9 -18.47C-2.9 -22.29 -2.03 -25.25 -0.28 -27.35C1.46 -29.45 4.01 -30.5 7.36 -30.5C8.77 -30.5 10.11 -30.36 11.36 -30.08C12.61 -29.79 13.73 -29.44 14.72 -29.01L16.56 -36.02C13.45 -37.29 10.14 -37.93 6.65 -37.93C3.82 -37.93 1.27 -37.43 -0.99 -36.44C-3.26 -35.45 -5.18 -34.09 -6.76 -32.34C-8.34 -30.59 -9.55 -28.53 -10.4 -26.15C-11.25 -23.77 -11.68 -21.21 -11.68 -18.47Z M29.72 -6.02C27.55 -6.02 25.83 -6.4 24.56 -7.18C23.28 -7.96 22.64 -9.36 22.64 -11.39C22.64 -12.43 22.88 -13.29 23.35 -13.98C23.82 -14.66 24.45 -15.19 25.23 -15.57C26.01 -15.95 26.88 -16.21 27.85 -16.35C28.81 -16.49 29.77 -16.56 30.71 -16.56C31.8 -16.56 32.79 -16.49 33.68 -16.35C34.58 -16.21 35.26 -16.06 35.74 -15.92L35.74 -6.44C34.37 -6.16 32.36 -6.02 29.72 -6.02ZM29.01 -37.93C26.65 -37.93 24.44 -37.74 22.36 -37.36C20.29 -36.99 18.71 -36.61 17.62 -36.23L18.68 -29.3C19.72 -29.67 21.06 -30 22.72 -30.29C24.37 -30.57 26.18 -30.71 28.16 -30.71C29.63 -30.71 30.84 -30.52 31.81 -30.15C32.78 -29.77 33.55 -29.24 34.14 -28.55C34.73 -27.87 35.15 -27.08 35.38 -26.18C35.62 -25.29 35.74 -24.34 35.74 -23.35L35.74 -21.94C34.56 -22.22 33.45 -22.42 32.41 -22.54C31.37 -22.66 30.38 -22.72 29.44 -22.72C27.41 -22.72 25.46 -22.52 23.6 -22.11C21.74 -21.71 20.1 -21.05 18.68 -20.13C17.27 -19.21 16.15 -18.02 15.32 -16.56C14.5 -15.1 14.08 -13.3 14.08 -11.18C14.08 -8.96 14.45 -7.1 15.18 -5.59C15.91 -4.08 16.92 -2.85 18.22 -1.91C19.52 -0.97 21.09 -0.28 22.93 0.14C24.77 0.57 26.8 0.78 29.01 0.78C32.36 0.78 35.37 0.58 38.04 0.18C40.7 -0.22 42.7 -0.57 44.02 -0.85L44.02 -23.28C44.02 -25.45 43.77 -27.45 43.27 -29.26C42.78 -31.08 41.95 -32.62 40.8 -33.9C39.64 -35.17 38.1 -36.16 36.16 -36.87C34.23 -37.58 31.84 -37.93 29.01 -37.93Z M89.8 0L99.43 0C97.59 -5.24 95.83 -10.07 94.15 -14.51C92.48 -18.94 90.85 -23.14 89.27 -27.1C87.69 -31.07 86.12 -34.84 84.56 -38.43C83.01 -42.01 81.4 -45.55 79.75 -49.04L71.33 -49.04C69.68 -45.55 68.08 -42.01 66.52 -38.43C64.96 -34.84 63.39 -31.07 61.81 -27.1C60.23 -23.14 58.62 -18.94 56.97 -14.51C55.31 -10.07 53.57 -5.24 51.73 0L61 0C61.66 -1.89 62.33 -3.79 63.02 -5.7C63.7 -7.61 64.37 -9.55 65.03 -11.53L85.7 -11.53C86.36 -9.55 87.04 -7.62 87.75 -5.73C88.46 -3.84 89.14 -1.93 89.8 0ZM75.37 -39.56C76.4 -37.15 77.63 -34.13 79.04 -30.5C80.46 -26.87 81.92 -22.95 83.43 -18.75L67.3 -18.75C68.81 -22.95 70.26 -26.84 71.65 -30.43C73.04 -34.01 74.28 -37.06 75.37 -39.56Z M107.49 -7.36L107.49 -41.61C108.62 -41.75 110.51 -41.82 113.15 -41.82C119.19 -41.82 123.65 -40.34 126.53 -37.36C129.41 -34.39 130.85 -30.12 130.85 -24.56C130.85 -19.08 129.37 -14.83 126.42 -11.78C123.47 -8.74 119 -7.22 113.01 -7.22C111.55 -7.22 110.39 -7.23 109.54 -7.25C108.7 -7.28 108.01 -7.31 107.49 -7.36ZM140.19 -24.56C140.19 -28.9 139.53 -32.63 138.2 -35.77C136.88 -38.91 135.01 -41.5 132.58 -43.56C130.15 -45.61 127.24 -47.12 123.84 -48.09C120.44 -49.05 116.69 -49.54 112.59 -49.54C110.61 -49.54 108.34 -49.47 105.79 -49.32C103.25 -49.18 100.84 -48.85 98.58 -48.33L98.58 -0.71C100.84 -0.19 103.22 0.15 105.72 0.32C108.22 0.48 110.46 0.57 112.45 0.57C116.6 0.57 120.38 0.06 123.8 -0.96C127.22 -1.97 130.15 -3.53 132.58 -5.63C135.01 -7.73 136.88 -10.34 138.2 -13.48C139.53 -16.62 140.19 -20.31 140.19 -24.56Z M153.56 -49.04L145.28 -49.04C144.86 -45.64 144.46 -41.94 144.08 -37.93C143.7 -33.92 143.36 -29.78 143.05 -25.51C142.75 -21.24 142.46 -16.94 142.2 -12.6C141.94 -8.26 141.72 -4.06 141.53 0L150.31 0C150.49 -5.71 150.72 -11.58 150.98 -17.62C151.24 -23.66 151.63 -29.51 152.15 -35.17C152.66 -34.13 153.28 -32.85 153.99 -31.31C154.69 -29.78 155.45 -28.14 156.25 -26.4C157.05 -24.65 157.87 -22.83 158.69 -20.95C159.52 -19.06 160.32 -17.23 161.1 -15.46C161.88 -13.69 162.6 -12.03 163.26 -10.47C163.92 -8.92 164.48 -7.6 164.95 -6.51L171.61 -6.51C172.08 -7.6 172.64 -8.9 173.3 -10.44C173.96 -11.97 174.68 -13.62 175.46 -15.39C176.24 -17.16 177.04 -18.99 177.87 -20.88C178.69 -22.76 179.51 -24.59 180.31 -26.36C181.11 -28.13 181.87 -29.77 182.57 -31.28C183.28 -32.79 183.9 -34.09 184.41 -35.17C184.93 -29.51 185.32 -23.66 185.58 -17.62C185.84 -11.58 186.07 -5.71 186.25 0L195.03 0C194.84 -4.06 194.62 -8.22 194.36 -12.49C194.1 -16.76 193.81 -21.01 193.51 -25.23C193.2 -29.45 192.86 -33.58 192.48 -37.61C192.1 -41.65 191.7 -45.45 191.28 -49.04L183.21 -49.04C182.17 -47.25 181.02 -45.05 179.74 -42.46C178.47 -39.86 177.17 -37.14 175.85 -34.29C174.53 -31.43 173.23 -28.53 171.96 -25.58C170.69 -22.63 169.51 -19.91 168.42 -17.41C167.34 -19.91 166.15 -22.63 164.85 -25.58C163.55 -28.53 162.24 -31.43 160.92 -34.29C159.6 -37.14 158.3 -39.86 157.03 -42.46C155.75 -45.05 154.6 -47.25 153.56 -49.04Z"></path></g><g id="SvgjsG15503" class="EQe4E6Emh9" transform="translate(-3.557750853664709, -9.961702390261182) scale(0.7115501707329418)" light-content="false" non-strokable="false" fill="#fef60b"><path d="M29.711 14h36.771v52.113H55.131l1.965 5.311.509 1.38-1.393.506-2.233.817 18.633 8.012 18.471-42.388-20.321-8.205 1.113-2.73 21.723 8.772 1.402.563-.602 1.385-19.661 45.117L74.149 86l-1.352-.582-22.316-9.594.215-.496-27.605 10.076-1.389.507-.512-1.38L6.374 44.475l2.784-1.013 14.303 38.673 30.338-11.082-1.827-4.94H28.229V31.147L6.02 39.258 5 36.491l23.229-8.477v-6.043h2.965v41.195h32.324V16.951H29.711z"></path></g></g></g></svg>